<?xml version="1.0" encoding="utf-8" standalone="no"?>
<!DOCTYPE svg PUBLIC "-//W3C//DTD SVG 1.1//EN"
  "http://www.w3.org/Graphics/SVG/1.1/DTD/svg11.dtd">
<svg height="275.86625pt" version="1.1" viewBox="0 0 296.748125 275.86625" width="296.748125pt" xmlns="http://www.w3.org/2000/svg" xmlns:xlink="http://www.w3.org/1999/xlink">
 <metadata>
  <rdf:RDF xmlns:cc="http://creativecommons.org/ns#" xmlns:dc="http://purl.org/dc/elements/1.1/" xmlns:rdf="http://www.w3.org/1999/02/22-rdf-syntax-ns#">
   <cc:Work>
    <dc:type rdf:resource="http://purl.org/dc/dcmitype/StillImage"/>
    <dc:date>2021-11-12T13:20:12.112135</dc:date>
    <dc:format>image/svg+xml</dc:format>
    <dc:creator>
     <cc:Agent>
      <dc:title>Matplotlib v3.4.3, https://matplotlib.org/</dc:title>
     </cc:Agent>
    </dc:creator>
   </cc:Work>
  </rdf:RDF>
 </metadata>
 <defs>
  <style type="text/css">*{stroke-linecap:butt;stroke-linejoin:round;}</style>
 </defs>
 <g id="figure_1">
  <g id="patch_1">
   <path d="M 0 275.86625 
L 296.748125 275.86625 
L 296.748125 0 
L 0 0 
z
" style="fill:none;"/>
  </g>
  <g id="axes_1">
   <g id="patch_2">
    <path d="M 44.028125 239.375625 
L 289.548125 239.375625 
L 289.548125 21.935625 
L 44.028125 21.935625 
z
" style="fill:#ffffff;"/>
   </g>
   <g id="matplotlib.axis_1">
    <g id="xtick_1">
     <g id="line2d_1">
      <defs>
       <path d="M 0 0 
L 0 3.5 
" id="m0becfaab23" style="stroke:#000000;stroke-width:0.8;"/>
      </defs>
      <g>
       <use style="stroke:#000000;stroke-width:0.8;" x="55.188125" xlink:href="#m0becfaab23" y="239.375625"/>
      </g>
     </g>
     <g id="text_1">
      <!-- 0 -->
      <g transform="translate(52.407656 253.533437)scale(0.1 -0.1)">
       <defs>
        <path d="M 266 2259 
Q 266 3072 433 3567 
Q 600 4063 929 4331 
Q 1259 4600 1759 4600 
Q 2128 4600 2406 4451 
Q 2684 4303 2865 4023 
Q 3047 3744 3150 3342 
Q 3253 2941 3253 2259 
Q 3253 1453 3087 958 
Q 2922 463 2592 192 
Q 2263 -78 1759 -78 
Q 1097 -78 719 397 
Q 266 969 266 2259 
z
M 844 2259 
Q 844 1131 1108 757 
Q 1372 384 1759 384 
Q 2147 384 2411 759 
Q 2675 1134 2675 2259 
Q 2675 3391 2411 3762 
Q 2147 4134 1753 4134 
Q 1366 4134 1134 3806 
Q 844 3388 844 2259 
z
" id="ArialMT-30" transform="scale(0.015625)"/>
       </defs>
       <use xlink:href="#ArialMT-30"/>
      </g>
     </g>
    </g>
    <g id="xtick_2">
     <g id="line2d_2">
      <g>
       <use style="stroke:#000000;stroke-width:0.8;" x="92.388125" xlink:href="#m0becfaab23" y="239.375625"/>
      </g>
     </g>
     <g id="text_2">
      <!-- 20 -->
      <g transform="translate(86.827188 253.533437)scale(0.1 -0.1)">
       <defs>
        <path d="M 3222 541 
L 3222 0 
L 194 0 
Q 188 203 259 391 
Q 375 700 629 1000 
Q 884 1300 1366 1694 
Q 2113 2306 2375 2664 
Q 2638 3022 2638 3341 
Q 2638 3675 2398 3904 
Q 2159 4134 1775 4134 
Q 1369 4134 1125 3890 
Q 881 3647 878 3216 
L 300 3275 
Q 359 3922 746 4261 
Q 1134 4600 1788 4600 
Q 2447 4600 2831 4234 
Q 3216 3869 3216 3328 
Q 3216 3053 3103 2787 
Q 2991 2522 2730 2228 
Q 2469 1934 1863 1422 
Q 1356 997 1212 845 
Q 1069 694 975 541 
L 3222 541 
z
" id="ArialMT-32" transform="scale(0.015625)"/>
       </defs>
       <use xlink:href="#ArialMT-32"/>
       <use x="55.615234" xlink:href="#ArialMT-30"/>
      </g>
     </g>
    </g>
    <g id="xtick_3">
     <g id="line2d_3">
      <g>
       <use style="stroke:#000000;stroke-width:0.8;" x="129.588125" xlink:href="#m0becfaab23" y="239.375625"/>
      </g>
     </g>
     <g id="text_3">
      <!-- 40 -->
      <g transform="translate(124.027188 253.533437)scale(0.1 -0.1)">
       <defs>
        <path d="M 2069 0 
L 2069 1097 
L 81 1097 
L 81 1613 
L 2172 4581 
L 2631 4581 
L 2631 1613 
L 3250 1613 
L 3250 1097 
L 2631 1097 
L 2631 0 
L 2069 0 
z
M 2069 1613 
L 2069 3678 
L 634 1613 
L 2069 1613 
z
" id="ArialMT-34" transform="scale(0.015625)"/>
       </defs>
       <use xlink:href="#ArialMT-34"/>
       <use x="55.615234" xlink:href="#ArialMT-30"/>
      </g>
     </g>
    </g>
    <g id="xtick_4">
     <g id="line2d_4">
      <g>
       <use style="stroke:#000000;stroke-width:0.8;" x="166.788125" xlink:href="#m0becfaab23" y="239.375625"/>
      </g>
     </g>
     <g id="text_4">
      <!-- 60 -->
      <g transform="translate(161.227188 253.533437)scale(0.1 -0.1)">
       <defs>
        <path d="M 3184 3459 
L 2625 3416 
Q 2550 3747 2413 3897 
Q 2184 4138 1850 4138 
Q 1581 4138 1378 3988 
Q 1113 3794 959 3422 
Q 806 3050 800 2363 
Q 1003 2672 1297 2822 
Q 1591 2972 1913 2972 
Q 2475 2972 2870 2558 
Q 3266 2144 3266 1488 
Q 3266 1056 3080 686 
Q 2894 316 2569 119 
Q 2244 -78 1831 -78 
Q 1128 -78 684 439 
Q 241 956 241 2144 
Q 241 3472 731 4075 
Q 1159 4600 1884 4600 
Q 2425 4600 2770 4297 
Q 3116 3994 3184 3459 
z
M 888 1484 
Q 888 1194 1011 928 
Q 1134 663 1356 523 
Q 1578 384 1822 384 
Q 2178 384 2434 671 
Q 2691 959 2691 1453 
Q 2691 1928 2437 2201 
Q 2184 2475 1800 2475 
Q 1419 2475 1153 2201 
Q 888 1928 888 1484 
z
" id="ArialMT-36" transform="scale(0.015625)"/>
       </defs>
       <use xlink:href="#ArialMT-36"/>
       <use x="55.615234" xlink:href="#ArialMT-30"/>
      </g>
     </g>
    </g>
    <g id="xtick_5">
     <g id="line2d_5">
      <g>
       <use style="stroke:#000000;stroke-width:0.8;" x="203.988125" xlink:href="#m0becfaab23" y="239.375625"/>
      </g>
     </g>
     <g id="text_5">
      <!-- 80 -->
      <g transform="translate(198.427188 253.533437)scale(0.1 -0.1)">
       <defs>
        <path d="M 1131 2484 
Q 781 2613 612 2850 
Q 444 3088 444 3419 
Q 444 3919 803 4259 
Q 1163 4600 1759 4600 
Q 2359 4600 2725 4251 
Q 3091 3903 3091 3403 
Q 3091 3084 2923 2848 
Q 2756 2613 2416 2484 
Q 2838 2347 3058 2040 
Q 3278 1734 3278 1309 
Q 3278 722 2862 322 
Q 2447 -78 1769 -78 
Q 1091 -78 675 323 
Q 259 725 259 1325 
Q 259 1772 486 2073 
Q 713 2375 1131 2484 
z
M 1019 3438 
Q 1019 3113 1228 2906 
Q 1438 2700 1772 2700 
Q 2097 2700 2305 2904 
Q 2513 3109 2513 3406 
Q 2513 3716 2298 3927 
Q 2084 4138 1766 4138 
Q 1444 4138 1231 3931 
Q 1019 3725 1019 3438 
z
M 838 1322 
Q 838 1081 952 856 
Q 1066 631 1291 507 
Q 1516 384 1775 384 
Q 2178 384 2440 643 
Q 2703 903 2703 1303 
Q 2703 1709 2433 1975 
Q 2163 2241 1756 2241 
Q 1359 2241 1098 1978 
Q 838 1716 838 1322 
z
" id="ArialMT-38" transform="scale(0.015625)"/>
       </defs>
       <use xlink:href="#ArialMT-38"/>
       <use x="55.615234" xlink:href="#ArialMT-30"/>
      </g>
     </g>
    </g>
    <g id="xtick_6">
     <g id="line2d_6">
      <g>
       <use style="stroke:#000000;stroke-width:0.8;" x="241.188125" xlink:href="#m0becfaab23" y="239.375625"/>
      </g>
     </g>
     <g id="text_6">
      <!-- 100 -->
      <g transform="translate(232.846719 253.533437)scale(0.1 -0.1)">
       <defs>
        <path d="M 2384 0 
L 1822 0 
L 1822 3584 
Q 1619 3391 1289 3197 
Q 959 3003 697 2906 
L 697 3450 
Q 1169 3672 1522 3987 
Q 1875 4303 2022 4600 
L 2384 4600 
L 2384 0 
z
" id="ArialMT-31" transform="scale(0.015625)"/>
       </defs>
       <use xlink:href="#ArialMT-31"/>
       <use x="55.615234" xlink:href="#ArialMT-30"/>
       <use x="111.230469" xlink:href="#ArialMT-30"/>
      </g>
     </g>
    </g>
    <g id="xtick_7">
     <g id="line2d_7">
      <g>
       <use style="stroke:#000000;stroke-width:0.8;" x="278.388125" xlink:href="#m0becfaab23" y="239.375625"/>
      </g>
     </g>
     <g id="text_7">
      <!-- 120 -->
      <g transform="translate(270.046719 253.533437)scale(0.1 -0.1)">
       <use xlink:href="#ArialMT-31"/>
       <use x="55.615234" xlink:href="#ArialMT-32"/>
       <use x="111.230469" xlink:href="#ArialMT-30"/>
      </g>
     </g>
    </g>
    <g id="text_8">
     <!-- Research Octane Number -->
     <g transform="translate(108.710781 266.67875)scale(0.1 -0.1)">
      <defs>
       <path d="M 503 0 
L 503 4581 
L 2534 4581 
Q 3147 4581 3465 4457 
Q 3784 4334 3975 4021 
Q 4166 3709 4166 3331 
Q 4166 2844 3850 2509 
Q 3534 2175 2875 2084 
Q 3116 1969 3241 1856 
Q 3506 1613 3744 1247 
L 4541 0 
L 3778 0 
L 3172 953 
Q 2906 1366 2734 1584 
Q 2563 1803 2427 1890 
Q 2291 1978 2150 2013 
Q 2047 2034 1813 2034 
L 1109 2034 
L 1109 0 
L 503 0 
z
M 1109 2559 
L 2413 2559 
Q 2828 2559 3062 2645 
Q 3297 2731 3419 2920 
Q 3541 3109 3541 3331 
Q 3541 3656 3305 3865 
Q 3069 4075 2559 4075 
L 1109 4075 
L 1109 2559 
z
" id="ArialMT-52" transform="scale(0.015625)"/>
       <path d="M 2694 1069 
L 3275 997 
Q 3138 488 2766 206 
Q 2394 -75 1816 -75 
Q 1088 -75 661 373 
Q 234 822 234 1631 
Q 234 2469 665 2931 
Q 1097 3394 1784 3394 
Q 2450 3394 2872 2941 
Q 3294 2488 3294 1666 
Q 3294 1616 3291 1516 
L 816 1516 
Q 847 969 1125 678 
Q 1403 388 1819 388 
Q 2128 388 2347 550 
Q 2566 713 2694 1069 
z
M 847 1978 
L 2700 1978 
Q 2663 2397 2488 2606 
Q 2219 2931 1791 2931 
Q 1403 2931 1139 2672 
Q 875 2413 847 1978 
z
" id="ArialMT-65" transform="scale(0.015625)"/>
       <path d="M 197 991 
L 753 1078 
Q 800 744 1014 566 
Q 1228 388 1613 388 
Q 2000 388 2187 545 
Q 2375 703 2375 916 
Q 2375 1106 2209 1216 
Q 2094 1291 1634 1406 
Q 1016 1563 777 1677 
Q 538 1791 414 1992 
Q 291 2194 291 2438 
Q 291 2659 392 2848 
Q 494 3038 669 3163 
Q 800 3259 1026 3326 
Q 1253 3394 1513 3394 
Q 1903 3394 2198 3281 
Q 2494 3169 2634 2976 
Q 2775 2784 2828 2463 
L 2278 2388 
Q 2241 2644 2061 2787 
Q 1881 2931 1553 2931 
Q 1166 2931 1000 2803 
Q 834 2675 834 2503 
Q 834 2394 903 2306 
Q 972 2216 1119 2156 
Q 1203 2125 1616 2013 
Q 2213 1853 2448 1751 
Q 2684 1650 2818 1456 
Q 2953 1263 2953 975 
Q 2953 694 2789 445 
Q 2625 197 2315 61 
Q 2006 -75 1616 -75 
Q 969 -75 630 194 
Q 291 463 197 991 
z
" id="ArialMT-73" transform="scale(0.015625)"/>
       <path d="M 2588 409 
Q 2275 144 1986 34 
Q 1697 -75 1366 -75 
Q 819 -75 525 192 
Q 231 459 231 875 
Q 231 1119 342 1320 
Q 453 1522 633 1644 
Q 813 1766 1038 1828 
Q 1203 1872 1538 1913 
Q 2219 1994 2541 2106 
Q 2544 2222 2544 2253 
Q 2544 2597 2384 2738 
Q 2169 2928 1744 2928 
Q 1347 2928 1158 2789 
Q 969 2650 878 2297 
L 328 2372 
Q 403 2725 575 2942 
Q 747 3159 1072 3276 
Q 1397 3394 1825 3394 
Q 2250 3394 2515 3294 
Q 2781 3194 2906 3042 
Q 3031 2891 3081 2659 
Q 3109 2516 3109 2141 
L 3109 1391 
Q 3109 606 3145 398 
Q 3181 191 3288 0 
L 2700 0 
Q 2613 175 2588 409 
z
M 2541 1666 
Q 2234 1541 1622 1453 
Q 1275 1403 1131 1340 
Q 988 1278 909 1158 
Q 831 1038 831 891 
Q 831 666 1001 516 
Q 1172 366 1500 366 
Q 1825 366 2078 508 
Q 2331 650 2450 897 
Q 2541 1088 2541 1459 
L 2541 1666 
z
" id="ArialMT-61" transform="scale(0.015625)"/>
       <path d="M 416 0 
L 416 3319 
L 922 3319 
L 922 2816 
Q 1116 3169 1280 3281 
Q 1444 3394 1641 3394 
Q 1925 3394 2219 3213 
L 2025 2691 
Q 1819 2813 1613 2813 
Q 1428 2813 1281 2702 
Q 1134 2591 1072 2394 
Q 978 2094 978 1738 
L 978 0 
L 416 0 
z
" id="ArialMT-72" transform="scale(0.015625)"/>
       <path d="M 2588 1216 
L 3141 1144 
Q 3050 572 2676 248 
Q 2303 -75 1759 -75 
Q 1078 -75 664 370 
Q 250 816 250 1647 
Q 250 2184 428 2587 
Q 606 2991 970 3192 
Q 1334 3394 1763 3394 
Q 2303 3394 2647 3120 
Q 2991 2847 3088 2344 
L 2541 2259 
Q 2463 2594 2264 2762 
Q 2066 2931 1784 2931 
Q 1359 2931 1093 2626 
Q 828 2322 828 1663 
Q 828 994 1084 691 
Q 1341 388 1753 388 
Q 2084 388 2306 591 
Q 2528 794 2588 1216 
z
" id="ArialMT-63" transform="scale(0.015625)"/>
       <path d="M 422 0 
L 422 4581 
L 984 4581 
L 984 2938 
Q 1378 3394 1978 3394 
Q 2347 3394 2619 3248 
Q 2891 3103 3008 2847 
Q 3125 2591 3125 2103 
L 3125 0 
L 2563 0 
L 2563 2103 
Q 2563 2525 2380 2717 
Q 2197 2909 1863 2909 
Q 1613 2909 1392 2779 
Q 1172 2650 1078 2428 
Q 984 2206 984 1816 
L 984 0 
L 422 0 
z
" id="ArialMT-68" transform="scale(0.015625)"/>
       <path id="ArialMT-20" transform="scale(0.015625)"/>
       <path d="M 309 2231 
Q 309 3372 921 4017 
Q 1534 4663 2503 4663 
Q 3138 4663 3647 4359 
Q 4156 4056 4423 3514 
Q 4691 2972 4691 2284 
Q 4691 1588 4409 1038 
Q 4128 488 3612 205 
Q 3097 -78 2500 -78 
Q 1853 -78 1343 234 
Q 834 547 571 1087 
Q 309 1628 309 2231 
z
M 934 2222 
Q 934 1394 1379 917 
Q 1825 441 2497 441 
Q 3181 441 3623 922 
Q 4066 1403 4066 2288 
Q 4066 2847 3877 3264 
Q 3688 3681 3323 3911 
Q 2959 4141 2506 4141 
Q 1863 4141 1398 3698 
Q 934 3256 934 2222 
z
" id="ArialMT-4f" transform="scale(0.015625)"/>
       <path d="M 1650 503 
L 1731 6 
Q 1494 -44 1306 -44 
Q 1000 -44 831 53 
Q 663 150 594 308 
Q 525 466 525 972 
L 525 2881 
L 113 2881 
L 113 3319 
L 525 3319 
L 525 4141 
L 1084 4478 
L 1084 3319 
L 1650 3319 
L 1650 2881 
L 1084 2881 
L 1084 941 
Q 1084 700 1114 631 
Q 1144 563 1211 522 
Q 1278 481 1403 481 
Q 1497 481 1650 503 
z
" id="ArialMT-74" transform="scale(0.015625)"/>
       <path d="M 422 0 
L 422 3319 
L 928 3319 
L 928 2847 
Q 1294 3394 1984 3394 
Q 2284 3394 2536 3286 
Q 2788 3178 2913 3003 
Q 3038 2828 3088 2588 
Q 3119 2431 3119 2041 
L 3119 0 
L 2556 0 
L 2556 2019 
Q 2556 2363 2490 2533 
Q 2425 2703 2258 2804 
Q 2091 2906 1866 2906 
Q 1506 2906 1245 2678 
Q 984 2450 984 1813 
L 984 0 
L 422 0 
z
" id="ArialMT-6e" transform="scale(0.015625)"/>
       <path d="M 488 0 
L 488 4581 
L 1109 4581 
L 3516 984 
L 3516 4581 
L 4097 4581 
L 4097 0 
L 3475 0 
L 1069 3600 
L 1069 0 
L 488 0 
z
" id="ArialMT-4e" transform="scale(0.015625)"/>
       <path d="M 2597 0 
L 2597 488 
Q 2209 -75 1544 -75 
Q 1250 -75 995 37 
Q 741 150 617 320 
Q 494 491 444 738 
Q 409 903 409 1263 
L 409 3319 
L 972 3319 
L 972 1478 
Q 972 1038 1006 884 
Q 1059 663 1231 536 
Q 1403 409 1656 409 
Q 1909 409 2131 539 
Q 2353 669 2445 892 
Q 2538 1116 2538 1541 
L 2538 3319 
L 3100 3319 
L 3100 0 
L 2597 0 
z
" id="ArialMT-75" transform="scale(0.015625)"/>
       <path d="M 422 0 
L 422 3319 
L 925 3319 
L 925 2853 
Q 1081 3097 1340 3245 
Q 1600 3394 1931 3394 
Q 2300 3394 2536 3241 
Q 2772 3088 2869 2813 
Q 3263 3394 3894 3394 
Q 4388 3394 4653 3120 
Q 4919 2847 4919 2278 
L 4919 0 
L 4359 0 
L 4359 2091 
Q 4359 2428 4304 2576 
Q 4250 2725 4106 2815 
Q 3963 2906 3769 2906 
Q 3419 2906 3187 2673 
Q 2956 2441 2956 1928 
L 2956 0 
L 2394 0 
L 2394 2156 
Q 2394 2531 2256 2718 
Q 2119 2906 1806 2906 
Q 1569 2906 1367 2781 
Q 1166 2656 1075 2415 
Q 984 2175 984 1722 
L 984 0 
L 422 0 
z
" id="ArialMT-6d" transform="scale(0.015625)"/>
       <path d="M 941 0 
L 419 0 
L 419 4581 
L 981 4581 
L 981 2947 
Q 1338 3394 1891 3394 
Q 2197 3394 2470 3270 
Q 2744 3147 2920 2923 
Q 3097 2700 3197 2384 
Q 3297 2069 3297 1709 
Q 3297 856 2875 390 
Q 2453 -75 1863 -75 
Q 1275 -75 941 416 
L 941 0 
z
M 934 1684 
Q 934 1088 1097 822 
Q 1363 388 1816 388 
Q 2184 388 2453 708 
Q 2722 1028 2722 1663 
Q 2722 2313 2464 2622 
Q 2206 2931 1841 2931 
Q 1472 2931 1203 2611 
Q 934 2291 934 1684 
z
" id="ArialMT-62" transform="scale(0.015625)"/>
      </defs>
      <use xlink:href="#ArialMT-52"/>
      <use x="72.216797" xlink:href="#ArialMT-65"/>
      <use x="127.832031" xlink:href="#ArialMT-73"/>
      <use x="177.832031" xlink:href="#ArialMT-65"/>
      <use x="233.447266" xlink:href="#ArialMT-61"/>
      <use x="289.0625" xlink:href="#ArialMT-72"/>
      <use x="322.363281" xlink:href="#ArialMT-63"/>
      <use x="372.363281" xlink:href="#ArialMT-68"/>
      <use x="427.978516" xlink:href="#ArialMT-20"/>
      <use x="455.761719" xlink:href="#ArialMT-4f"/>
      <use x="533.544922" xlink:href="#ArialMT-63"/>
      <use x="583.544922" xlink:href="#ArialMT-74"/>
      <use x="611.328125" xlink:href="#ArialMT-61"/>
      <use x="666.943359" xlink:href="#ArialMT-6e"/>
      <use x="722.558594" xlink:href="#ArialMT-65"/>
      <use x="778.173828" xlink:href="#ArialMT-20"/>
      <use x="805.957031" xlink:href="#ArialMT-4e"/>
      <use x="878.173828" xlink:href="#ArialMT-75"/>
      <use x="933.789062" xlink:href="#ArialMT-6d"/>
      <use x="1017.089844" xlink:href="#ArialMT-62"/>
      <use x="1072.705078" xlink:href="#ArialMT-65"/>
      <use x="1128.320312" xlink:href="#ArialMT-72"/>
     </g>
    </g>
   </g>
   <g id="matplotlib.axis_2">
    <g id="ytick_1">
     <g id="line2d_8">
      <defs>
       <path d="M 0 0 
L -3.5 0 
" id="m4fce20675b" style="stroke:#000000;stroke-width:0.8;"/>
      </defs>
      <g>
       <use style="stroke:#000000;stroke-width:0.8;" x="44.028125" xlink:href="#m4fce20675b" y="229.491989"/>
      </g>
     </g>
     <g id="text_9">
      <!-- 0 -->
      <g transform="translate(31.467188 233.070895)scale(0.1 -0.1)">
       <use xlink:href="#ArialMT-30"/>
      </g>
     </g>
    </g>
    <g id="ytick_2">
     <g id="line2d_9">
      <g>
       <use style="stroke:#000000;stroke-width:0.8;" x="44.028125" xlink:href="#m4fce20675b" y="196.546534"/>
      </g>
     </g>
     <g id="text_10">
      <!-- 20 -->
      <g transform="translate(25.90625 200.12544)scale(0.1 -0.1)">
       <use xlink:href="#ArialMT-32"/>
       <use x="55.615234" xlink:href="#ArialMT-30"/>
      </g>
     </g>
    </g>
    <g id="ytick_3">
     <g id="line2d_10">
      <g>
       <use style="stroke:#000000;stroke-width:0.8;" x="44.028125" xlink:href="#m4fce20675b" y="163.60108"/>
      </g>
     </g>
     <g id="text_11">
      <!-- 40 -->
      <g transform="translate(25.90625 167.179986)scale(0.1 -0.1)">
       <use xlink:href="#ArialMT-34"/>
       <use x="55.615234" xlink:href="#ArialMT-30"/>
      </g>
     </g>
    </g>
    <g id="ytick_4">
     <g id="line2d_11">
      <g>
       <use style="stroke:#000000;stroke-width:0.8;" x="44.028125" xlink:href="#m4fce20675b" y="130.655625"/>
      </g>
     </g>
     <g id="text_12">
      <!-- 60 -->
      <g transform="translate(25.90625 134.234531)scale(0.1 -0.1)">
       <use xlink:href="#ArialMT-36"/>
       <use x="55.615234" xlink:href="#ArialMT-30"/>
      </g>
     </g>
    </g>
    <g id="ytick_5">
     <g id="line2d_12">
      <g>
       <use style="stroke:#000000;stroke-width:0.8;" x="44.028125" xlink:href="#m4fce20675b" y="97.71017"/>
      </g>
     </g>
     <g id="text_13">
      <!-- 80 -->
      <g transform="translate(25.90625 101.289077)scale(0.1 -0.1)">
       <use xlink:href="#ArialMT-38"/>
       <use x="55.615234" xlink:href="#ArialMT-30"/>
      </g>
     </g>
    </g>
    <g id="ytick_6">
     <g id="line2d_13">
      <g>
       <use style="stroke:#000000;stroke-width:0.8;" x="44.028125" xlink:href="#m4fce20675b" y="64.764716"/>
      </g>
     </g>
     <g id="text_14">
      <!-- 100 -->
      <g transform="translate(20.345313 68.343622)scale(0.1 -0.1)">
       <use xlink:href="#ArialMT-31"/>
       <use x="55.615234" xlink:href="#ArialMT-30"/>
       <use x="111.230469" xlink:href="#ArialMT-30"/>
      </g>
     </g>
    </g>
    <g id="ytick_7">
     <g id="line2d_14">
      <g>
       <use style="stroke:#000000;stroke-width:0.8;" x="44.028125" xlink:href="#m4fce20675b" y="31.819261"/>
      </g>
     </g>
     <g id="text_15">
      <!-- 120 -->
      <g transform="translate(20.345313 35.398168)scale(0.1 -0.1)">
       <use xlink:href="#ArialMT-31"/>
       <use x="55.615234" xlink:href="#ArialMT-32"/>
       <use x="111.230469" xlink:href="#ArialMT-30"/>
      </g>
     </g>
    </g>
    <g id="text_16">
     <!-- Predicted -->
     <g transform="translate(14.357813 151.7775)rotate(-90)scale(0.1 -0.1)">
      <defs>
       <path d="M 494 0 
L 494 4581 
L 2222 4581 
Q 2678 4581 2919 4538 
Q 3256 4481 3484 4323 
Q 3713 4166 3852 3881 
Q 3991 3597 3991 3256 
Q 3991 2672 3619 2267 
Q 3247 1863 2275 1863 
L 1100 1863 
L 1100 0 
L 494 0 
z
M 1100 2403 
L 2284 2403 
Q 2872 2403 3119 2622 
Q 3366 2841 3366 3238 
Q 3366 3525 3220 3729 
Q 3075 3934 2838 4000 
Q 2684 4041 2272 4041 
L 1100 4041 
L 1100 2403 
z
" id="ArialMT-50" transform="scale(0.015625)"/>
       <path d="M 2575 0 
L 2575 419 
Q 2259 -75 1647 -75 
Q 1250 -75 917 144 
Q 584 363 401 755 
Q 219 1147 219 1656 
Q 219 2153 384 2558 
Q 550 2963 881 3178 
Q 1213 3394 1622 3394 
Q 1922 3394 2156 3267 
Q 2391 3141 2538 2938 
L 2538 4581 
L 3097 4581 
L 3097 0 
L 2575 0 
z
M 797 1656 
Q 797 1019 1065 703 
Q 1334 388 1700 388 
Q 2069 388 2326 689 
Q 2584 991 2584 1609 
Q 2584 2291 2321 2609 
Q 2059 2928 1675 2928 
Q 1300 2928 1048 2622 
Q 797 2316 797 1656 
z
" id="ArialMT-64" transform="scale(0.015625)"/>
       <path d="M 425 3934 
L 425 4581 
L 988 4581 
L 988 3934 
L 425 3934 
z
M 425 0 
L 425 3319 
L 988 3319 
L 988 0 
L 425 0 
z
" id="ArialMT-69" transform="scale(0.015625)"/>
      </defs>
      <use xlink:href="#ArialMT-50"/>
      <use x="66.699219" xlink:href="#ArialMT-72"/>
      <use x="100" xlink:href="#ArialMT-65"/>
      <use x="155.615234" xlink:href="#ArialMT-64"/>
      <use x="211.230469" xlink:href="#ArialMT-69"/>
      <use x="233.447266" xlink:href="#ArialMT-63"/>
      <use x="283.447266" xlink:href="#ArialMT-74"/>
      <use x="311.230469" xlink:href="#ArialMT-65"/>
      <use x="366.845703" xlink:href="#ArialMT-64"/>
     </g>
    </g>
   </g>
   <g id="line2d_15">
    <path clip-path="url(#p8a216c11e7)" d="M 44.028125 239.375625 
L 289.548125 21.935625 
" style="fill:none;stroke:#000000;stroke-linecap:square;stroke-width:0.5;"/>
   </g>
   <g id="line2d_16">
    <defs>
     <path d="M 0 1.5 
C 0.397805 1.5 0.77937 1.341951 1.06066 1.06066 
C 1.341951 0.77937 1.5 0.397805 1.5 0 
C 1.5 -0.397805 1.341951 -0.77937 1.06066 -1.06066 
C 0.77937 -1.341951 0.397805 -1.5 0 -1.5 
C -0.397805 -1.5 -0.77937 -1.341951 -1.06066 -1.06066 
C -1.341951 -0.77937 -1.5 -0.397805 -1.5 0 
C -1.5 0.397805 -1.341951 0.77937 -1.06066 1.06066 
C -0.77937 1.341951 -0.397805 1.5 0 1.5 
z
" id="m7e908ddb67" style="stroke:#0000ff;stroke-opacity:0.5;"/>
    </defs>
    <g clip-path="url(#p8a216c11e7)">
     <use style="fill:#0000ff;fill-opacity:0.5;stroke:#0000ff;stroke-opacity:0.5;" x="127.542125" xlink:href="#m7e908ddb67" y="107.593962"/>
     <use style="fill:#0000ff;fill-opacity:0.5;stroke:#0000ff;stroke-opacity:0.5;" x="237.282125" xlink:href="#m7e908ddb67" y="73.165676"/>
     <use style="fill:#0000ff;fill-opacity:0.5;stroke:#0000ff;stroke-opacity:0.5;" x="182.970125" xlink:href="#m7e908ddb67" y="100.54524"/>
     <use style="fill:#0000ff;fill-opacity:0.5;stroke:#0000ff;stroke-opacity:0.5;" x="223.890125" xlink:href="#m7e908ddb67" y="85.025963"/>
     <use style="fill:#0000ff;fill-opacity:0.5;stroke:#0000ff;stroke-opacity:0.5;" x="239.142125" xlink:href="#m7e908ddb67" y="65.042476"/>
     <use style="fill:#0000ff;fill-opacity:0.5;stroke:#0000ff;stroke-opacity:0.5;" x="217.566125" xlink:href="#m7e908ddb67" y="90.627124"/>
     <use style="fill:#0000ff;fill-opacity:0.5;stroke:#0000ff;stroke-opacity:0.5;" x="246.768125" xlink:href="#m7e908ddb67" y="58.021909"/>
     <use style="fill:#0000ff;fill-opacity:0.5;stroke:#0000ff;stroke-opacity:0.5;" x="171.996125" xlink:href="#m7e908ddb67" y="123.230456"/>
     <use style="fill:#0000ff;fill-opacity:0.5;stroke:#0000ff;stroke-opacity:0.5;" x="257.928125" xlink:href="#m7e908ddb67" y="58.028057"/>
     <use style="fill:#0000ff;fill-opacity:0.5;stroke:#0000ff;stroke-opacity:0.5;" x="209.754125" xlink:href="#m7e908ddb67" y="79.954989"/>
     <use style="fill:#0000ff;fill-opacity:0.5;stroke:#0000ff;stroke-opacity:0.5;" x="173.856125" xlink:href="#m7e908ddb67" y="108.792673"/>
     <use style="fill:#0000ff;fill-opacity:0.5;stroke:#0000ff;stroke-opacity:0.5;" x="239.886125" xlink:href="#m7e908ddb67" y="64.223356"/>
     <use style="fill:#0000ff;fill-opacity:0.5;stroke:#0000ff;stroke-opacity:0.5;" x="88.296125" xlink:href="#m7e908ddb67" y="171.561755"/>
     <use style="fill:#0000ff;fill-opacity:0.5;stroke:#0000ff;stroke-opacity:0.5;" x="233.190125" xlink:href="#m7e908ddb67" y="86.772095"/>
     <use style="fill:#0000ff;fill-opacity:0.5;stroke:#0000ff;stroke-opacity:0.5;" x="221.286125" xlink:href="#m7e908ddb67" y="114.443676"/>
     <use style="fill:#0000ff;fill-opacity:0.5;stroke:#0000ff;stroke-opacity:0.5;" x="263.694125" xlink:href="#m7e908ddb67" y="52.290417"/>
     <use style="fill:#0000ff;fill-opacity:0.5;stroke:#0000ff;stroke-opacity:0.5;" x="230.028125" xlink:href="#m7e908ddb67" y="72.574836"/>
     <use style="fill:#0000ff;fill-opacity:0.5;stroke:#0000ff;stroke-opacity:0.5;" x="278.388125" xlink:href="#m7e908ddb67" y="60.573516"/>
     <use style="fill:#0000ff;fill-opacity:0.5;stroke:#0000ff;stroke-opacity:0.5;" x="242.304125" xlink:href="#m7e908ddb67" y="76.230909"/>
     <use style="fill:#0000ff;fill-opacity:0.5;stroke:#0000ff;stroke-opacity:0.5;" x="191.526125" xlink:href="#m7e908ddb67" y="86.168749"/>
     <use style="fill:#0000ff;fill-opacity:0.5;stroke:#0000ff;stroke-opacity:0.5;" x="244.722125" xlink:href="#m7e908ddb67" y="66.576113"/>
     <use style="fill:#0000ff;fill-opacity:0.5;stroke:#0000ff;stroke-opacity:0.5;" x="272.436125" xlink:href="#m7e908ddb67" y="54.623418"/>
     <use style="fill:#0000ff;fill-opacity:0.5;stroke:#0000ff;stroke-opacity:0.5;" x="203.616125" xlink:href="#m7e908ddb67" y="98.889707"/>
     <use style="fill:#0000ff;fill-opacity:0.5;stroke:#0000ff;stroke-opacity:0.5;" x="252.348125" xlink:href="#m7e908ddb67" y="67.245643"/>
     <use style="fill:#0000ff;fill-opacity:0.5;stroke:#0000ff;stroke-opacity:0.5;" x="233.748125" xlink:href="#m7e908ddb67" y="65.850551"/>
     <use style="fill:#0000ff;fill-opacity:0.5;stroke:#0000ff;stroke-opacity:0.5;" x="241.188125" xlink:href="#m7e908ddb67" y="51.018274"/>
     <use style="fill:#0000ff;fill-opacity:0.5;stroke:#0000ff;stroke-opacity:0.5;" x="234.120125" xlink:href="#m7e908ddb67" y="68.437719"/>
     <use style="fill:#0000ff;fill-opacity:0.5;stroke:#0000ff;stroke-opacity:0.5;" x="247.698125" xlink:href="#m7e908ddb67" y="60.102476"/>
     <use style="fill:#0000ff;fill-opacity:0.5;stroke:#0000ff;stroke-opacity:0.5;" x="240.258125" xlink:href="#m7e908ddb67" y="62.483255"/>
     <use style="fill:#0000ff;fill-opacity:0.5;stroke:#0000ff;stroke-opacity:0.5;" x="141.678125" xlink:href="#m7e908ddb67" y="162.140313"/>
     <use style="fill:#0000ff;fill-opacity:0.5;stroke:#0000ff;stroke-opacity:0.5;" x="242.676125" xlink:href="#m7e908ddb67" y="90.112355"/>
     <use style="fill:#0000ff;fill-opacity:0.5;stroke:#0000ff;stroke-opacity:0.5;" x="252.348125" xlink:href="#m7e908ddb67" y="65.50035"/>
     <use style="fill:#0000ff;fill-opacity:0.5;stroke:#0000ff;stroke-opacity:0.5;" x="248.628125" xlink:href="#m7e908ddb67" y="79.285548"/>
     <use style="fill:#0000ff;fill-opacity:0.5;stroke:#0000ff;stroke-opacity:0.5;" x="233.190125" xlink:href="#m7e908ddb67" y="66.906282"/>
     <use style="fill:#0000ff;fill-opacity:0.5;stroke:#0000ff;stroke-opacity:0.5;" x="225.006125" xlink:href="#m7e908ddb67" y="87.124389"/>
     <use style="fill:#0000ff;fill-opacity:0.5;stroke:#0000ff;stroke-opacity:0.5;" x="235.608125" xlink:href="#m7e908ddb67" y="74.960903"/>
     <use style="fill:#0000ff;fill-opacity:0.5;stroke:#0000ff;stroke-opacity:0.5;" x="227.796125" xlink:href="#m7e908ddb67" y="66.823876"/>
     <use style="fill:#0000ff;fill-opacity:0.5;stroke:#0000ff;stroke-opacity:0.5;" x="236.538125" xlink:href="#m7e908ddb67" y="63.266994"/>
     <use style="fill:#0000ff;fill-opacity:0.5;stroke:#0000ff;stroke-opacity:0.5;" x="237.468125" xlink:href="#m7e908ddb67" y="95.952342"/>
     <use style="fill:#0000ff;fill-opacity:0.5;stroke:#0000ff;stroke-opacity:0.5;" x="253.464125" xlink:href="#m7e908ddb67" y="59.660256"/>
     <use style="fill:#0000ff;fill-opacity:0.5;stroke:#0000ff;stroke-opacity:0.5;" x="180.180125" xlink:href="#m7e908ddb67" y="154.58626"/>
     <use style="fill:#0000ff;fill-opacity:0.5;stroke:#0000ff;stroke-opacity:0.5;" x="195.618125" xlink:href="#m7e908ddb67" y="67.493916"/>
     <use style="fill:#0000ff;fill-opacity:0.5;stroke:#0000ff;stroke-opacity:0.5;" x="253.278125" xlink:href="#m7e908ddb67" y="58.998791"/>
     <use style="fill:#0000ff;fill-opacity:0.5;stroke:#0000ff;stroke-opacity:0.5;" x="239.700125" xlink:href="#m7e908ddb67" y="61.920817"/>
     <use style="fill:#0000ff;fill-opacity:0.5;stroke:#0000ff;stroke-opacity:0.5;" x="151.722125" xlink:href="#m7e908ddb67" y="139.056383"/>
     <use style="fill:#0000ff;fill-opacity:0.5;stroke:#0000ff;stroke-opacity:0.5;" x="104.850125" xlink:href="#m7e908ddb67" y="73.953462"/>
     <use style="fill:#0000ff;fill-opacity:0.5;stroke:#0000ff;stroke-opacity:0.5;" x="187.248125" xlink:href="#m7e908ddb67" y="107.593962"/>
     <use style="fill:#0000ff;fill-opacity:0.5;stroke:#0000ff;stroke-opacity:0.5;" x="241.188125" xlink:href="#m7e908ddb67" y="59.823396"/>
     <use style="fill:#0000ff;fill-opacity:0.5;stroke:#0000ff;stroke-opacity:0.5;" x="218.682125" xlink:href="#m7e908ddb67" y="68.049318"/>
     <use style="fill:#0000ff;fill-opacity:0.5;stroke:#0000ff;stroke-opacity:0.5;" x="211.428125" xlink:href="#m7e908ddb67" y="107.593962"/>
     <use style="fill:#0000ff;fill-opacity:0.5;stroke:#0000ff;stroke-opacity:0.5;" x="246.210125" xlink:href="#m7e908ddb67" y="64.277707"/>
     <use style="fill:#0000ff;fill-opacity:0.5;stroke:#0000ff;stroke-opacity:0.5;" x="254.580125" xlink:href="#m7e908ddb67" y="58.801764"/>
     <use style="fill:#0000ff;fill-opacity:0.5;stroke:#0000ff;stroke-opacity:0.5;" x="230.400125" xlink:href="#m7e908ddb67" y="77.873671"/>
     <use style="fill:#0000ff;fill-opacity:0.5;stroke:#0000ff;stroke-opacity:0.5;" x="225.936125" xlink:href="#m7e908ddb67" y="58.396928"/>
     <use style="fill:#0000ff;fill-opacity:0.5;stroke:#0000ff;stroke-opacity:0.5;" x="228.354125" xlink:href="#m7e908ddb67" y="71.189433"/>
     <use style="fill:#0000ff;fill-opacity:0.5;stroke:#0000ff;stroke-opacity:0.5;" x="252.906125" xlink:href="#m7e908ddb67" y="63.184872"/>
     <use style="fill:#0000ff;fill-opacity:0.5;stroke:#0000ff;stroke-opacity:0.5;" x="194.688125" xlink:href="#m7e908ddb67" y="86.319712"/>
     <use style="fill:#0000ff;fill-opacity:0.5;stroke:#0000ff;stroke-opacity:0.5;" x="159.906125" xlink:href="#m7e908ddb67" y="131.808607"/>
     <use style="fill:#0000ff;fill-opacity:0.5;stroke:#0000ff;stroke-opacity:0.5;" x="251.790125" xlink:href="#m7e908ddb67" y="61.158099"/>
     <use style="fill:#0000ff;fill-opacity:0.5;stroke:#0000ff;stroke-opacity:0.5;" x="251.046125" xlink:href="#m7e908ddb67" y="62.051005"/>
     <use style="fill:#0000ff;fill-opacity:0.5;stroke:#0000ff;stroke-opacity:0.5;" x="191.712125" xlink:href="#m7e908ddb67" y="146.676311"/>
     <use style="fill:#0000ff;fill-opacity:0.5;stroke:#0000ff;stroke-opacity:0.5;" x="191.712125" xlink:href="#m7e908ddb67" y="90.323891"/>
     <use style="fill:#0000ff;fill-opacity:0.5;stroke:#0000ff;stroke-opacity:0.5;" x="181.110125" xlink:href="#m7e908ddb67" y="108.401239"/>
     <use style="fill:#0000ff;fill-opacity:0.5;stroke:#0000ff;stroke-opacity:0.5;" x="243.048125" xlink:href="#m7e908ddb67" y="125.137593"/>
     <use style="fill:#0000ff;fill-opacity:0.5;stroke:#0000ff;stroke-opacity:0.5;" x="221.100125" xlink:href="#m7e908ddb67" y="87.496971"/>
     <use style="fill:#0000ff;fill-opacity:0.5;stroke:#0000ff;stroke-opacity:0.5;" x="117.312125" xlink:href="#m7e908ddb67" y="169.531618"/>
     <use style="fill:#0000ff;fill-opacity:0.5;stroke:#0000ff;stroke-opacity:0.5;" x="162.324125" xlink:href="#m7e908ddb67" y="133.870042"/>
     <use style="fill:#0000ff;fill-opacity:0.5;stroke:#0000ff;stroke-opacity:0.5;" x="246.210125" xlink:href="#m7e908ddb67" y="55.37551"/>
     <use style="fill:#0000ff;fill-opacity:0.5;stroke:#0000ff;stroke-opacity:0.5;" x="252.348125" xlink:href="#m7e908ddb67" y="50.149224"/>
     <use style="fill:#0000ff;fill-opacity:0.5;stroke:#0000ff;stroke-opacity:0.5;" x="55.188125" xlink:href="#m7e908ddb67" y="176.550806"/>
     <use style="fill:#0000ff;fill-opacity:0.5;stroke:#0000ff;stroke-opacity:0.5;" x="215.892125" xlink:href="#m7e908ddb67" y="82.225859"/>
     <use style="fill:#0000ff;fill-opacity:0.5;stroke:#0000ff;stroke-opacity:0.5;" x="243.234125" xlink:href="#m7e908ddb67" y="67.894635"/>
     <use style="fill:#0000ff;fill-opacity:0.5;stroke:#0000ff;stroke-opacity:0.5;" x="243.606125" xlink:href="#m7e908ddb67" y="61.984694"/>
     <use style="fill:#0000ff;fill-opacity:0.5;stroke:#0000ff;stroke-opacity:0.5;" x="245.094125" xlink:href="#m7e908ddb67" y="68.776049"/>
     <use style="fill:#0000ff;fill-opacity:0.5;stroke:#0000ff;stroke-opacity:0.5;" x="264.996125" xlink:href="#m7e908ddb67" y="67.431228"/>
     <use style="fill:#0000ff;fill-opacity:0.5;stroke:#0000ff;stroke-opacity:0.5;" x="244.908125" xlink:href="#m7e908ddb67" y="123.122723"/>
     <use style="fill:#0000ff;fill-opacity:0.5;stroke:#0000ff;stroke-opacity:0.5;" x="236.166125" xlink:href="#m7e908ddb67" y="64.27039"/>
     <use style="fill:#0000ff;fill-opacity:0.5;stroke:#0000ff;stroke-opacity:0.5;" x="150.048125" xlink:href="#m7e908ddb67" y="125.326839"/>
     <use style="fill:#0000ff;fill-opacity:0.5;stroke:#0000ff;stroke-opacity:0.5;" x="205.662125" xlink:href="#m7e908ddb67" y="103.370553"/>
     <use style="fill:#0000ff;fill-opacity:0.5;stroke:#0000ff;stroke-opacity:0.5;" x="244.164125" xlink:href="#m7e908ddb67" y="63.33756"/>
     <use style="fill:#0000ff;fill-opacity:0.5;stroke:#0000ff;stroke-opacity:0.5;" x="239.700125" xlink:href="#m7e908ddb67" y="64.274334"/>
     <use style="fill:#0000ff;fill-opacity:0.5;stroke:#0000ff;stroke-opacity:0.5;" x="246.768125" xlink:href="#m7e908ddb67" y="64.764961"/>
     <use style="fill:#0000ff;fill-opacity:0.5;stroke:#0000ff;stroke-opacity:0.5;" x="176.088125" xlink:href="#m7e908ddb67" y="60.530261"/>
     <use style="fill:#0000ff;fill-opacity:0.5;stroke:#0000ff;stroke-opacity:0.5;" x="261.648125" xlink:href="#m7e908ddb67" y="61.7987"/>
     <use style="fill:#0000ff;fill-opacity:0.5;stroke:#0000ff;stroke-opacity:0.5;" x="192.456125" xlink:href="#m7e908ddb67" y="117.266408"/>
     <use style="fill:#0000ff;fill-opacity:0.5;stroke:#0000ff;stroke-opacity:0.5;" x="111.732125" xlink:href="#m7e908ddb67" y="174.472588"/>
     <use style="fill:#0000ff;fill-opacity:0.5;stroke:#0000ff;stroke-opacity:0.5;" x="231.144125" xlink:href="#m7e908ddb67" y="77.269019"/>
     <use style="fill:#0000ff;fill-opacity:0.5;stroke:#0000ff;stroke-opacity:0.5;" x="232.260125" xlink:href="#m7e908ddb67" y="70.172773"/>
     <use style="fill:#0000ff;fill-opacity:0.5;stroke:#0000ff;stroke-opacity:0.5;" x="251.046125" xlink:href="#m7e908ddb67" y="51.092185"/>
     <use style="fill:#0000ff;fill-opacity:0.5;stroke:#0000ff;stroke-opacity:0.5;" x="185.760125" xlink:href="#m7e908ddb67" y="118.79573"/>
     <use style="fill:#0000ff;fill-opacity:0.5;stroke:#0000ff;stroke-opacity:0.5;" x="244.908125" xlink:href="#m7e908ddb67" y="67.969132"/>
     <use style="fill:#0000ff;fill-opacity:0.5;stroke:#0000ff;stroke-opacity:0.5;" x="117.498125" xlink:href="#m7e908ddb67" y="74.956551"/>
     <use style="fill:#0000ff;fill-opacity:0.5;stroke:#0000ff;stroke-opacity:0.5;" x="244.164125" xlink:href="#m7e908ddb67" y="107.593962"/>
     <use style="fill:#0000ff;fill-opacity:0.5;stroke:#0000ff;stroke-opacity:0.5;" x="260.718125" xlink:href="#m7e908ddb67" y="52.410007"/>
     <use style="fill:#0000ff;fill-opacity:0.5;stroke:#0000ff;stroke-opacity:0.5;" x="257.928125" xlink:href="#m7e908ddb67" y="52.51685"/>
     <use style="fill:#0000ff;fill-opacity:0.5;stroke:#0000ff;stroke-opacity:0.5;" x="218.496125" xlink:href="#m7e908ddb67" y="65.161176"/>
     <use style="fill:#0000ff;fill-opacity:0.5;stroke:#0000ff;stroke-opacity:0.5;" x="190.038125" xlink:href="#m7e908ddb67" y="115.006234"/>
     <use style="fill:#0000ff;fill-opacity:0.5;stroke:#0000ff;stroke-opacity:0.5;" x="208.080125" xlink:href="#m7e908ddb67" y="69.852798"/>
     <use style="fill:#0000ff;fill-opacity:0.5;stroke:#0000ff;stroke-opacity:0.5;" x="156.558125" xlink:href="#m7e908ddb67" y="136.513178"/>
     <use style="fill:#0000ff;fill-opacity:0.5;stroke:#0000ff;stroke-opacity:0.5;" x="195.618125" xlink:href="#m7e908ddb67" y="71.69894"/>
     <use style="fill:#0000ff;fill-opacity:0.5;stroke:#0000ff;stroke-opacity:0.5;" x="244.536125" xlink:href="#m7e908ddb67" y="59.822713"/>
     <use style="fill:#0000ff;fill-opacity:0.5;stroke:#0000ff;stroke-opacity:0.5;" x="206.034125" xlink:href="#m7e908ddb67" y="118.624093"/>
     <use style="fill:#0000ff;fill-opacity:0.5;stroke:#0000ff;stroke-opacity:0.5;" x="236.166125" xlink:href="#m7e908ddb67" y="68.62159"/>
     <use style="fill:#0000ff;fill-opacity:0.5;stroke:#0000ff;stroke-opacity:0.5;" x="193.758125" xlink:href="#m7e908ddb67" y="59.743275"/>
     <use style="fill:#0000ff;fill-opacity:0.5;stroke:#0000ff;stroke-opacity:0.5;" x="239.886125" xlink:href="#m7e908ddb67" y="62.823033"/>
     <use style="fill:#0000ff;fill-opacity:0.5;stroke:#0000ff;stroke-opacity:0.5;" x="234.120125" xlink:href="#m7e908ddb67" y="66.552305"/>
     <use style="fill:#0000ff;fill-opacity:0.5;stroke:#0000ff;stroke-opacity:0.5;" x="211.428125" xlink:href="#m7e908ddb67" y="102.523885"/>
     <use style="fill:#0000ff;fill-opacity:0.5;stroke:#0000ff;stroke-opacity:0.5;" x="101.316125" xlink:href="#m7e908ddb67" y="147.157095"/>
     <use style="fill:#0000ff;fill-opacity:0.5;stroke:#0000ff;stroke-opacity:0.5;" x="238.026125" xlink:href="#m7e908ddb67" y="63.735957"/>
     <use style="fill:#0000ff;fill-opacity:0.5;stroke:#0000ff;stroke-opacity:0.5;" x="268.902125" xlink:href="#m7e908ddb67" y="56.938079"/>
     <use style="fill:#0000ff;fill-opacity:0.5;stroke:#0000ff;stroke-opacity:0.5;" x="222.960125" xlink:href="#m7e908ddb67" y="69.406097"/>
     <use style="fill:#0000ff;fill-opacity:0.5;stroke:#0000ff;stroke-opacity:0.5;" x="243.606125" xlink:href="#m7e908ddb67" y="59.306949"/>
     <use style="fill:#0000ff;fill-opacity:0.5;stroke:#0000ff;stroke-opacity:0.5;" x="170.136125" xlink:href="#m7e908ddb67" y="98.222215"/>
     <use style="fill:#0000ff;fill-opacity:0.5;stroke:#0000ff;stroke-opacity:0.5;" x="237.096125" xlink:href="#m7e908ddb67" y="71.341529"/>
     <use style="fill:#0000ff;fill-opacity:0.5;stroke:#0000ff;stroke-opacity:0.5;" x="214.218125" xlink:href="#m7e908ddb67" y="61.664817"/>
     <use style="fill:#0000ff;fill-opacity:0.5;stroke:#0000ff;stroke-opacity:0.5;" x="199.710125" xlink:href="#m7e908ddb67" y="96.556767"/>
     <use style="fill:#0000ff;fill-opacity:0.5;stroke:#0000ff;stroke-opacity:0.5;" x="105.036125" xlink:href="#m7e908ddb67" y="141.071385"/>
     <use style="fill:#0000ff;fill-opacity:0.5;stroke:#0000ff;stroke-opacity:0.5;" x="252.348125" xlink:href="#m7e908ddb67" y="76.111569"/>
     <use style="fill:#0000ff;fill-opacity:0.5;stroke:#0000ff;stroke-opacity:0.5;" x="227.610125" xlink:href="#m7e908ddb67" y="90.237421"/>
     <use style="fill:#0000ff;fill-opacity:0.5;stroke:#0000ff;stroke-opacity:0.5;" x="148.746125" xlink:href="#m7e908ddb67" y="141.302856"/>
     <use style="fill:#0000ff;fill-opacity:0.5;stroke:#0000ff;stroke-opacity:0.5;" x="234.120125" xlink:href="#m7e908ddb67" y="89.495089"/>
     <use style="fill:#0000ff;fill-opacity:0.5;stroke:#0000ff;stroke-opacity:0.5;" x="246.582125" xlink:href="#m7e908ddb67" y="60.240294"/>
     <use style="fill:#0000ff;fill-opacity:0.5;stroke:#0000ff;stroke-opacity:0.5;" x="224.634125" xlink:href="#m7e908ddb67" y="87.212206"/>
     <use style="fill:#0000ff;fill-opacity:0.5;stroke:#0000ff;stroke-opacity:0.5;" x="173.856125" xlink:href="#m7e908ddb67" y="119.454686"/>
     <use style="fill:#0000ff;fill-opacity:0.5;stroke:#0000ff;stroke-opacity:0.5;" x="274.668125" xlink:href="#m7e908ddb67" y="58.804218"/>
     <use style="fill:#0000ff;fill-opacity:0.5;stroke:#0000ff;stroke-opacity:0.5;" x="180.366125" xlink:href="#m7e908ddb67" y="56.247124"/>
     <use style="fill:#0000ff;fill-opacity:0.5;stroke:#0000ff;stroke-opacity:0.5;" x="157.860125" xlink:href="#m7e908ddb67" y="82.556778"/>
     <use style="fill:#0000ff;fill-opacity:0.5;stroke:#0000ff;stroke-opacity:0.5;" x="233.004125" xlink:href="#m7e908ddb67" y="65.403846"/>
     <use style="fill:#0000ff;fill-opacity:0.5;stroke:#0000ff;stroke-opacity:0.5;" x="249.372125" xlink:href="#m7e908ddb67" y="63.521849"/>
     <use style="fill:#0000ff;fill-opacity:0.5;stroke:#0000ff;stroke-opacity:0.5;" x="227.796125" xlink:href="#m7e908ddb67" y="71.683191"/>
     <use style="fill:#0000ff;fill-opacity:0.5;stroke:#0000ff;stroke-opacity:0.5;" x="110.802125" xlink:href="#m7e908ddb67" y="174.472588"/>
     <use style="fill:#0000ff;fill-opacity:0.5;stroke:#0000ff;stroke-opacity:0.5;" x="248.628125" xlink:href="#m7e908ddb67" y="53.789077"/>
     <use style="fill:#0000ff;fill-opacity:0.5;stroke:#0000ff;stroke-opacity:0.5;" x="107.268125" xlink:href="#m7e908ddb67" y="162.140313"/>
     <use style="fill:#0000ff;fill-opacity:0.5;stroke:#0000ff;stroke-opacity:0.5;" x="241.188125" xlink:href="#m7e908ddb67" y="69.706341"/>
     <use style="fill:#0000ff;fill-opacity:0.5;stroke:#0000ff;stroke-opacity:0.5;" x="261.648125" xlink:href="#m7e908ddb67" y="60.42142"/>
     <use style="fill:#0000ff;fill-opacity:0.5;stroke:#0000ff;stroke-opacity:0.5;" x="108.570125" xlink:href="#m7e908ddb67" y="166.729326"/>
     <use style="fill:#0000ff;fill-opacity:0.5;stroke:#0000ff;stroke-opacity:0.5;" x="187.806125" xlink:href="#m7e908ddb67" y="94.669703"/>
     <use style="fill:#0000ff;fill-opacity:0.5;stroke:#0000ff;stroke-opacity:0.5;" x="250.488125" xlink:href="#m7e908ddb67" y="51.96102"/>
     <use style="fill:#0000ff;fill-opacity:0.5;stroke:#0000ff;stroke-opacity:0.5;" x="234.306125" xlink:href="#m7e908ddb67" y="73.753245"/>
     <use style="fill:#0000ff;fill-opacity:0.5;stroke:#0000ff;stroke-opacity:0.5;" x="238.956125" xlink:href="#m7e908ddb67" y="65.628414"/>
     <use style="fill:#0000ff;fill-opacity:0.5;stroke:#0000ff;stroke-opacity:0.5;" x="187.806125" xlink:href="#m7e908ddb67" y="119.967059"/>
     <use style="fill:#0000ff;fill-opacity:0.5;stroke:#0000ff;stroke-opacity:0.5;" x="226.866125" xlink:href="#m7e908ddb67" y="61.449579"/>
     <use style="fill:#0000ff;fill-opacity:0.5;stroke:#0000ff;stroke-opacity:0.5;" x="252.534125" xlink:href="#m7e908ddb67" y="49.774853"/>
     <use style="fill:#0000ff;fill-opacity:0.5;stroke:#0000ff;stroke-opacity:0.5;" x="240.258125" xlink:href="#m7e908ddb67" y="61.437857"/>
     <use style="fill:#0000ff;fill-opacity:0.5;stroke:#0000ff;stroke-opacity:0.5;" x="236.538125" xlink:href="#m7e908ddb67" y="60.860024"/>
     <use style="fill:#0000ff;fill-opacity:0.5;stroke:#0000ff;stroke-opacity:0.5;" x="184.086125" xlink:href="#m7e908ddb67" y="113.724695"/>
     <use style="fill:#0000ff;fill-opacity:0.5;stroke:#0000ff;stroke-opacity:0.5;" x="230.772125" xlink:href="#m7e908ddb67" y="77.269019"/>
     <use style="fill:#0000ff;fill-opacity:0.5;stroke:#0000ff;stroke-opacity:0.5;" x="247.326125" xlink:href="#m7e908ddb67" y="58.340046"/>
     <use style="fill:#0000ff;fill-opacity:0.5;stroke:#0000ff;stroke-opacity:0.5;" x="262.950125" xlink:href="#m7e908ddb67" y="60.840611"/>
     <use style="fill:#0000ff;fill-opacity:0.5;stroke:#0000ff;stroke-opacity:0.5;" x="180.366125" xlink:href="#m7e908ddb67" y="108.21829"/>
     <use style="fill:#0000ff;fill-opacity:0.5;stroke:#0000ff;stroke-opacity:0.5;" x="259.044125" xlink:href="#m7e908ddb67" y="84.04094"/>
     <use style="fill:#0000ff;fill-opacity:0.5;stroke:#0000ff;stroke-opacity:0.5;" x="247.698125" xlink:href="#m7e908ddb67" y="62.262051"/>
     <use style="fill:#0000ff;fill-opacity:0.5;stroke:#0000ff;stroke-opacity:0.5;" x="235.980125" xlink:href="#m7e908ddb67" y="63.995381"/>
     <use style="fill:#0000ff;fill-opacity:0.5;stroke:#0000ff;stroke-opacity:0.5;" x="95.550125" xlink:href="#m7e908ddb67" y="145.089072"/>
     <use style="fill:#0000ff;fill-opacity:0.5;stroke:#0000ff;stroke-opacity:0.5;" x="205.476125" xlink:href="#m7e908ddb67" y="55.146495"/>
    </g>
   </g>
   <g id="line2d_17">
    <defs>
     <path d="M 0 1.5 
C 0.397805 1.5 0.77937 1.341951 1.06066 1.06066 
C 1.341951 0.77937 1.5 0.397805 1.5 0 
C 1.5 -0.397805 1.341951 -0.77937 1.06066 -1.06066 
C 0.77937 -1.341951 0.397805 -1.5 0 -1.5 
C -0.397805 -1.5 -0.77937 -1.341951 -1.06066 -1.06066 
C -1.341951 -0.77937 -1.5 -0.397805 -1.5 0 
C -1.5 0.397805 -1.341951 0.77937 -1.06066 1.06066 
C -0.77937 1.341951 -0.397805 1.5 0 1.5 
z
" id="mdaaa4f50de" style="stroke:#ff0000;stroke-opacity:0.5;"/>
    </defs>
    <g clip-path="url(#p8a216c11e7)">
     <use style="fill:#ff0000;fill-opacity:0.5;stroke:#ff0000;stroke-opacity:0.5;" x="230.028125" xlink:href="#mdaaa4f50de" y="57.010004"/>
     <use style="fill:#ff0000;fill-opacity:0.5;stroke:#ff0000;stroke-opacity:0.5;" x="278.388125" xlink:href="#mdaaa4f50de" y="62.567676"/>
     <use style="fill:#ff0000;fill-opacity:0.5;stroke:#ff0000;stroke-opacity:0.5;" x="240.072125" xlink:href="#mdaaa4f50de" y="74.161075"/>
     <use style="fill:#ff0000;fill-opacity:0.5;stroke:#ff0000;stroke-opacity:0.5;" x="251.046125" xlink:href="#mdaaa4f50de" y="53.398336"/>
     <use style="fill:#ff0000;fill-opacity:0.5;stroke:#ff0000;stroke-opacity:0.5;" x="203.802125" xlink:href="#mdaaa4f50de" y="104.40355"/>
     <use style="fill:#ff0000;fill-opacity:0.5;stroke:#ff0000;stroke-opacity:0.5;" x="151.908125" xlink:href="#mdaaa4f50de" y="105.032687"/>
     <use style="fill:#ff0000;fill-opacity:0.5;stroke:#ff0000;stroke-opacity:0.5;" x="226.866125" xlink:href="#mdaaa4f50de" y="84.762488"/>
     <use style="fill:#ff0000;fill-opacity:0.5;stroke:#ff0000;stroke-opacity:0.5;" x="261.648125" xlink:href="#mdaaa4f50de" y="66.899315"/>
     <use style="fill:#ff0000;fill-opacity:0.5;stroke:#ff0000;stroke-opacity:0.5;" x="176.460125" xlink:href="#mdaaa4f50de" y="81.261991"/>
     <use style="fill:#ff0000;fill-opacity:0.5;stroke:#ff0000;stroke-opacity:0.5;" x="215.892125" xlink:href="#mdaaa4f50de" y="63.583681"/>
     <use style="fill:#ff0000;fill-opacity:0.5;stroke:#ff0000;stroke-opacity:0.5;" x="55.188125" xlink:href="#mdaaa4f50de" y="176.550806"/>
     <use style="fill:#ff0000;fill-opacity:0.5;stroke:#ff0000;stroke-opacity:0.5;" x="245.094125" xlink:href="#mdaaa4f50de" y="56.337995"/>
     <use style="fill:#ff0000;fill-opacity:0.5;stroke:#ff0000;stroke-opacity:0.5;" x="246.768125" xlink:href="#mdaaa4f50de" y="62.40895"/>
     <use style="fill:#ff0000;fill-opacity:0.5;stroke:#ff0000;stroke-opacity:0.5;" x="236.352125" xlink:href="#mdaaa4f50de" y="53.453242"/>
     <use style="fill:#ff0000;fill-opacity:0.5;stroke:#ff0000;stroke-opacity:0.5;" x="222.588125" xlink:href="#mdaaa4f50de" y="92.270303"/>
     <use style="fill:#ff0000;fill-opacity:0.5;stroke:#ff0000;stroke-opacity:0.5;" x="263.694125" xlink:href="#mdaaa4f50de" y="63.957565"/>
     <use style="fill:#ff0000;fill-opacity:0.5;stroke:#ff0000;stroke-opacity:0.5;" x="221.100125" xlink:href="#mdaaa4f50de" y="90.571568"/>
     <use style="fill:#ff0000;fill-opacity:0.5;stroke:#ff0000;stroke-opacity:0.5;" x="215.892125" xlink:href="#mdaaa4f50de" y="90.985176"/>
     <use style="fill:#ff0000;fill-opacity:0.5;stroke:#ff0000;stroke-opacity:0.5;" x="260.346125" xlink:href="#mdaaa4f50de" y="50.699359"/>
     <use style="fill:#ff0000;fill-opacity:0.5;stroke:#ff0000;stroke-opacity:0.5;" x="233.004125" xlink:href="#mdaaa4f50de" y="68.29767"/>
     <use style="fill:#ff0000;fill-opacity:0.5;stroke:#ff0000;stroke-opacity:0.5;" x="254.208125" xlink:href="#mdaaa4f50de" y="64.572318"/>
     <use style="fill:#ff0000;fill-opacity:0.5;stroke:#ff0000;stroke-opacity:0.5;" x="269.832125" xlink:href="#mdaaa4f50de" y="60.772134"/>
     <use style="fill:#ff0000;fill-opacity:0.5;stroke:#ff0000;stroke-opacity:0.5;" x="190.782125" xlink:href="#mdaaa4f50de" y="71.432992"/>
     <use style="fill:#ff0000;fill-opacity:0.5;stroke:#ff0000;stroke-opacity:0.5;" x="117.870125" xlink:href="#mdaaa4f50de" y="172.502528"/>
     <use style="fill:#ff0000;fill-opacity:0.5;stroke:#ff0000;stroke-opacity:0.5;" x="113.220125" xlink:href="#mdaaa4f50de" y="162.740097"/>
     <use style="fill:#ff0000;fill-opacity:0.5;stroke:#ff0000;stroke-opacity:0.5;" x="254.208125" xlink:href="#mdaaa4f50de" y="52.621304"/>
     <use style="fill:#ff0000;fill-opacity:0.5;stroke:#ff0000;stroke-opacity:0.5;" x="207.150125" xlink:href="#mdaaa4f50de" y="88.556119"/>
     <use style="fill:#ff0000;fill-opacity:0.5;stroke:#ff0000;stroke-opacity:0.5;" x="229.470125" xlink:href="#mdaaa4f50de" y="62.339513"/>
     <use style="fill:#ff0000;fill-opacity:0.5;stroke:#ff0000;stroke-opacity:0.5;" x="249.186125" xlink:href="#mdaaa4f50de" y="61.647264"/>
     <use style="fill:#ff0000;fill-opacity:0.5;stroke:#ff0000;stroke-opacity:0.5;" x="203.616125" xlink:href="#mdaaa4f50de" y="54.022542"/>
     <use style="fill:#ff0000;fill-opacity:0.5;stroke:#ff0000;stroke-opacity:0.5;" x="217.566125" xlink:href="#mdaaa4f50de" y="61.883169"/>
     <use style="fill:#ff0000;fill-opacity:0.5;stroke:#ff0000;stroke-opacity:0.5;" x="212.916125" xlink:href="#mdaaa4f50de" y="88.829542"/>
     <use style="fill:#ff0000;fill-opacity:0.5;stroke:#ff0000;stroke-opacity:0.5;" x="234.864125" xlink:href="#mdaaa4f50de" y="65.055968"/>
     <use style="fill:#ff0000;fill-opacity:0.5;stroke:#ff0000;stroke-opacity:0.5;" x="197.292125" xlink:href="#mdaaa4f50de" y="94.257504"/>
     <use style="fill:#ff0000;fill-opacity:0.5;stroke:#ff0000;stroke-opacity:0.5;" x="162.324125" xlink:href="#mdaaa4f50de" y="130.774729"/>
     <use style="fill:#ff0000;fill-opacity:0.5;stroke:#ff0000;stroke-opacity:0.5;" x="134.052125" xlink:href="#mdaaa4f50de" y="116.878905"/>
     <use style="fill:#ff0000;fill-opacity:0.5;stroke:#ff0000;stroke-opacity:0.5;" x="238.398125" xlink:href="#mdaaa4f50de" y="136.91283"/>
     <use style="fill:#ff0000;fill-opacity:0.5;stroke:#ff0000;stroke-opacity:0.5;" x="190.038125" xlink:href="#mdaaa4f50de" y="87.211992"/>
     <use style="fill:#ff0000;fill-opacity:0.5;stroke:#ff0000;stroke-opacity:0.5;" x="206.406125" xlink:href="#mdaaa4f50de" y="88.343825"/>
    </g>
   </g>
   <g id="patch_3">
    <path d="M 44.028125 239.375625 
L 44.028125 21.935625 
" style="fill:none;stroke:#000000;stroke-linecap:square;stroke-linejoin:miter;stroke-width:0.8;"/>
   </g>
   <g id="patch_4">
    <path d="M 289.548125 239.375625 
L 289.548125 21.935625 
" style="fill:none;stroke:#000000;stroke-linecap:square;stroke-linejoin:miter;stroke-width:0.8;"/>
   </g>
   <g id="patch_5">
    <path d="M 44.028125 239.375625 
L 289.548125 239.375625 
" style="fill:none;stroke:#000000;stroke-linecap:square;stroke-linejoin:miter;stroke-width:0.8;"/>
   </g>
   <g id="patch_6">
    <path d="M 44.028125 21.935625 
L 289.548125 21.935625 
" style="fill:none;stroke:#000000;stroke-linecap:square;stroke-linejoin:miter;stroke-width:0.8;"/>
   </g>
   <g id="text_17">
    <!-- $R^2_{train} = 0.65$ -->
    <g style="fill:#0000ff;" transform="translate(56.304125 37.156425)scale(0.09 -0.09)">
     <defs>
      <path d="M 1613 4147 
L 1294 2491 
L 2106 2491 
Q 2584 2491 2879 2755 
Q 3175 3019 3175 3444 
Q 3175 3784 2976 3965 
Q 2778 4147 2406 4147 
L 1613 4147 
z
M 2772 2241 
Q 2972 2194 3105 2009 
Q 3238 1825 3413 1275 
L 3809 0 
L 3144 0 
L 2778 1197 
Q 2638 1659 2453 1815 
Q 2269 1972 1888 1972 
L 1191 1972 
L 806 0 
L 172 0 
L 1081 4666 
L 2503 4666 
Q 3150 4666 3495 4373 
Q 3841 4081 3841 3531 
Q 3841 3044 3547 2687 
Q 3253 2331 2772 2241 
z
" id="DejaVuSans-Oblique-52" transform="scale(0.015625)"/>
      <path d="M 1228 531 
L 3431 531 
L 3431 0 
L 469 0 
L 469 531 
Q 828 903 1448 1529 
Q 2069 2156 2228 2338 
Q 2531 2678 2651 2914 
Q 2772 3150 2772 3378 
Q 2772 3750 2511 3984 
Q 2250 4219 1831 4219 
Q 1534 4219 1204 4116 
Q 875 4013 500 3803 
L 500 4441 
Q 881 4594 1212 4672 
Q 1544 4750 1819 4750 
Q 2544 4750 2975 4387 
Q 3406 4025 3406 3419 
Q 3406 3131 3298 2873 
Q 3191 2616 2906 2266 
Q 2828 2175 2409 1742 
Q 1991 1309 1228 531 
z
" id="DejaVuSans-32" transform="scale(0.015625)"/>
      <path d="M 2706 3500 
L 2619 3053 
L 1472 3053 
L 1100 1153 
Q 1081 1047 1072 975 
Q 1063 903 1063 863 
Q 1063 663 1183 572 
Q 1303 481 1569 481 
L 2150 481 
L 2053 0 
L 1503 0 
Q 991 0 739 200 
Q 488 400 488 806 
Q 488 878 497 964 
Q 506 1050 525 1153 
L 897 3053 
L 409 3053 
L 500 3500 
L 978 3500 
L 1172 4494 
L 1747 4494 
L 1556 3500 
L 2706 3500 
z
" id="DejaVuSans-Oblique-74" transform="scale(0.015625)"/>
      <path d="M 2853 2969 
Q 2766 3016 2653 3041 
Q 2541 3066 2413 3066 
Q 1953 3066 1609 2717 
Q 1266 2369 1153 1784 
L 800 0 
L 225 0 
L 909 3500 
L 1484 3500 
L 1375 2956 
Q 1603 3259 1920 3421 
Q 2238 3584 2597 3584 
Q 2691 3584 2781 3573 
Q 2872 3563 2963 3538 
L 2853 2969 
z
" id="DejaVuSans-Oblique-72" transform="scale(0.015625)"/>
      <path d="M 3438 1997 
L 3047 0 
L 2472 0 
L 2578 531 
Q 2325 219 2001 64 
Q 1678 -91 1281 -91 
Q 834 -91 548 182 
Q 263 456 263 884 
Q 263 1497 752 1853 
Q 1241 2209 2100 2209 
L 2900 2209 
L 2931 2363 
Q 2938 2388 2941 2417 
Q 2944 2447 2944 2509 
Q 2944 2788 2717 2942 
Q 2491 3097 2081 3097 
Q 1800 3097 1504 3025 
Q 1209 2953 897 2809 
L 997 3341 
Q 1322 3463 1633 3523 
Q 1944 3584 2234 3584 
Q 2853 3584 3176 3315 
Q 3500 3047 3500 2534 
Q 3500 2431 3484 2292 
Q 3469 2153 3438 1997 
z
M 2816 1759 
L 2241 1759 
Q 1534 1759 1195 1570 
Q 856 1381 856 984 
Q 856 709 1029 553 
Q 1203 397 1509 397 
Q 1978 397 2328 733 
Q 2678 1069 2791 1631 
L 2816 1759 
z
" id="DejaVuSans-Oblique-61" transform="scale(0.015625)"/>
      <path d="M 1172 4863 
L 1747 4863 
L 1606 4134 
L 1031 4134 
L 1172 4863 
z
M 909 3500 
L 1484 3500 
L 800 0 
L 225 0 
L 909 3500 
z
" id="DejaVuSans-Oblique-69" transform="scale(0.015625)"/>
      <path d="M 3566 2113 
L 3156 0 
L 2578 0 
L 2988 2091 
Q 3016 2238 3031 2350 
Q 3047 2463 3047 2528 
Q 3047 2791 2881 2937 
Q 2716 3084 2419 3084 
Q 1956 3084 1622 2776 
Q 1288 2469 1184 1941 
L 800 0 
L 225 0 
L 903 3500 
L 1478 3500 
L 1363 2950 
Q 1603 3253 1940 3418 
Q 2278 3584 2650 3584 
Q 3113 3584 3367 3334 
Q 3622 3084 3622 2631 
Q 3622 2519 3608 2391 
Q 3594 2263 3566 2113 
z
" id="DejaVuSans-Oblique-6e" transform="scale(0.015625)"/>
      <path d="M 678 2906 
L 4684 2906 
L 4684 2381 
L 678 2381 
L 678 2906 
z
M 678 1631 
L 4684 1631 
L 4684 1100 
L 678 1100 
L 678 1631 
z
" id="DejaVuSans-3d" transform="scale(0.015625)"/>
      <path d="M 2034 4250 
Q 1547 4250 1301 3770 
Q 1056 3291 1056 2328 
Q 1056 1369 1301 889 
Q 1547 409 2034 409 
Q 2525 409 2770 889 
Q 3016 1369 3016 2328 
Q 3016 3291 2770 3770 
Q 2525 4250 2034 4250 
z
M 2034 4750 
Q 2819 4750 3233 4129 
Q 3647 3509 3647 2328 
Q 3647 1150 3233 529 
Q 2819 -91 2034 -91 
Q 1250 -91 836 529 
Q 422 1150 422 2328 
Q 422 3509 836 4129 
Q 1250 4750 2034 4750 
z
" id="DejaVuSans-30" transform="scale(0.015625)"/>
      <path d="M 684 794 
L 1344 794 
L 1344 0 
L 684 0 
L 684 794 
z
" id="DejaVuSans-2e" transform="scale(0.015625)"/>
      <path d="M 2113 2584 
Q 1688 2584 1439 2293 
Q 1191 2003 1191 1497 
Q 1191 994 1439 701 
Q 1688 409 2113 409 
Q 2538 409 2786 701 
Q 3034 994 3034 1497 
Q 3034 2003 2786 2293 
Q 2538 2584 2113 2584 
z
M 3366 4563 
L 3366 3988 
Q 3128 4100 2886 4159 
Q 2644 4219 2406 4219 
Q 1781 4219 1451 3797 
Q 1122 3375 1075 2522 
Q 1259 2794 1537 2939 
Q 1816 3084 2150 3084 
Q 2853 3084 3261 2657 
Q 3669 2231 3669 1497 
Q 3669 778 3244 343 
Q 2819 -91 2113 -91 
Q 1303 -91 875 529 
Q 447 1150 447 2328 
Q 447 3434 972 4092 
Q 1497 4750 2381 4750 
Q 2619 4750 2861 4703 
Q 3103 4656 3366 4563 
z
" id="DejaVuSans-36" transform="scale(0.015625)"/>
      <path d="M 691 4666 
L 3169 4666 
L 3169 4134 
L 1269 4134 
L 1269 2991 
Q 1406 3038 1543 3061 
Q 1681 3084 1819 3084 
Q 2600 3084 3056 2656 
Q 3513 2228 3513 1497 
Q 3513 744 3044 326 
Q 2575 -91 1722 -91 
Q 1428 -91 1123 -41 
Q 819 9 494 109 
L 494 744 
Q 775 591 1075 516 
Q 1375 441 1709 441 
Q 2250 441 2565 725 
Q 2881 1009 2881 1497 
Q 2881 1984 2565 2268 
Q 2250 2553 1709 2553 
Q 1456 2553 1204 2497 
Q 953 2441 691 2322 
L 691 4666 
z
" id="DejaVuSans-35" transform="scale(0.015625)"/>
     </defs>
     <use transform="translate(0 0.701562)" xlink:href="#DejaVuSans-Oblique-52"/>
     <use transform="translate(76.499193 39.046875)scale(0.7)" xlink:href="#DejaVuSans-32"/>
     <use transform="translate(69.482422 -26.642188)scale(0.7)" xlink:href="#DejaVuSans-Oblique-74"/>
     <use transform="translate(96.928711 -26.642188)scale(0.7)" xlink:href="#DejaVuSans-Oblique-72"/>
     <use transform="translate(125.708008 -26.642188)scale(0.7)" xlink:href="#DejaVuSans-Oblique-61"/>
     <use transform="translate(168.603516 -26.642188)scale(0.7)" xlink:href="#DejaVuSans-Oblique-69"/>
     <use transform="translate(188.051758 -26.642188)scale(0.7)" xlink:href="#DejaVuSans-Oblique-6e"/>
     <use transform="translate(254.633789 0.701562)" xlink:href="#DejaVuSans-3d"/>
     <use transform="translate(357.905273 0.701562)" xlink:href="#DejaVuSans-30"/>
     <use transform="translate(421.52832 0.701562)" xlink:href="#DejaVuSans-2e"/>
     <use transform="translate(453.31543 0.701562)" xlink:href="#DejaVuSans-36"/>
     <use transform="translate(516.938477 0.701562)" xlink:href="#DejaVuSans-35"/>
    </g>
   </g>
   <g id="text_18">
    <!-- $R^2_{test} = 0.68$ -->
    <g style="fill:#ff0000;" transform="translate(56.304125 54.551625)scale(0.09 -0.09)">
     <defs>
      <path d="M 3078 2063 
Q 3088 2113 3092 2166 
Q 3097 2219 3097 2272 
Q 3097 2653 2873 2875 
Q 2650 3097 2266 3097 
Q 1838 3097 1509 2826 
Q 1181 2556 1013 2059 
L 3078 2063 
z
M 3578 1613 
L 903 1613 
Q 884 1494 878 1425 
Q 872 1356 872 1306 
Q 872 872 1139 634 
Q 1406 397 1894 397 
Q 2269 397 2603 481 
Q 2938 566 3225 728 
L 3116 159 
Q 2806 34 2476 -28 
Q 2147 -91 1806 -91 
Q 1078 -91 686 257 
Q 294 606 294 1247 
Q 294 1794 489 2264 
Q 684 2734 1063 3103 
Q 1306 3334 1642 3459 
Q 1978 3584 2356 3584 
Q 2950 3584 3301 3228 
Q 3653 2872 3653 2272 
Q 3653 2128 3634 1964 
Q 3616 1800 3578 1613 
z
" id="DejaVuSans-Oblique-65" transform="scale(0.015625)"/>
      <path d="M 3200 3397 
L 3091 2853 
Q 2863 2978 2609 3040 
Q 2356 3103 2088 3103 
Q 1634 3103 1373 2948 
Q 1113 2794 1113 2528 
Q 1113 2219 1719 2053 
Q 1766 2041 1788 2034 
L 1972 1978 
Q 2547 1819 2739 1644 
Q 2931 1469 2931 1166 
Q 2931 609 2489 259 
Q 2047 -91 1331 -91 
Q 1053 -91 747 -37 
Q 441 16 72 128 
L 184 722 
Q 500 559 806 475 
Q 1113 391 1394 391 
Q 1816 391 2080 572 
Q 2344 753 2344 1031 
Q 2344 1331 1650 1516 
L 1591 1531 
L 1394 1581 
Q 956 1697 753 1886 
Q 550 2075 550 2369 
Q 550 2928 970 3256 
Q 1391 3584 2113 3584 
Q 2397 3584 2667 3537 
Q 2938 3491 3200 3397 
z
" id="DejaVuSans-Oblique-73" transform="scale(0.015625)"/>
      <path d="M 2034 2216 
Q 1584 2216 1326 1975 
Q 1069 1734 1069 1313 
Q 1069 891 1326 650 
Q 1584 409 2034 409 
Q 2484 409 2743 651 
Q 3003 894 3003 1313 
Q 3003 1734 2745 1975 
Q 2488 2216 2034 2216 
z
M 1403 2484 
Q 997 2584 770 2862 
Q 544 3141 544 3541 
Q 544 4100 942 4425 
Q 1341 4750 2034 4750 
Q 2731 4750 3128 4425 
Q 3525 4100 3525 3541 
Q 3525 3141 3298 2862 
Q 3072 2584 2669 2484 
Q 3125 2378 3379 2068 
Q 3634 1759 3634 1313 
Q 3634 634 3220 271 
Q 2806 -91 2034 -91 
Q 1263 -91 848 271 
Q 434 634 434 1313 
Q 434 1759 690 2068 
Q 947 2378 1403 2484 
z
M 1172 3481 
Q 1172 3119 1398 2916 
Q 1625 2713 2034 2713 
Q 2441 2713 2670 2916 
Q 2900 3119 2900 3481 
Q 2900 3844 2670 4047 
Q 2441 4250 2034 4250 
Q 1625 4250 1398 4047 
Q 1172 3844 1172 3481 
z
" id="DejaVuSans-38" transform="scale(0.015625)"/>
     </defs>
     <use transform="translate(0 0.765625)" xlink:href="#DejaVuSans-Oblique-52"/>
     <use transform="translate(76.499193 39.046875)scale(0.7)" xlink:href="#DejaVuSans-32"/>
     <use transform="translate(69.482422 -26.578125)scale(0.7)" xlink:href="#DejaVuSans-Oblique-74"/>
     <use transform="translate(96.928711 -26.578125)scale(0.7)" xlink:href="#DejaVuSans-Oblique-65"/>
     <use transform="translate(139.995117 -26.578125)scale(0.7)" xlink:href="#DejaVuSans-Oblique-73"/>
     <use transform="translate(176.464844 -26.578125)scale(0.7)" xlink:href="#DejaVuSans-Oblique-74"/>
     <use transform="translate(226.12793 0.765625)" xlink:href="#DejaVuSans-3d"/>
     <use transform="translate(329.399414 0.765625)" xlink:href="#DejaVuSans-30"/>
     <use transform="translate(393.022461 0.765625)" xlink:href="#DejaVuSans-2e"/>
     <use transform="translate(424.80957 0.765625)" xlink:href="#DejaVuSans-36"/>
     <use transform="translate(488.432617 0.765625)" xlink:href="#DejaVuSans-38"/>
    </g>
   </g>
   <g id="text_19">
    <!-- 2D fingeprints signaturizer -->
    <g transform="translate(97.0925 15.935625)scale(0.12 -0.12)">
     <defs>
      <path d="M 494 0 
L 494 4581 
L 2072 4581 
Q 2606 4581 2888 4516 
Q 3281 4425 3559 4188 
Q 3922 3881 4101 3404 
Q 4281 2928 4281 2316 
Q 4281 1794 4159 1391 
Q 4038 988 3847 723 
Q 3656 459 3429 307 
Q 3203 156 2883 78 
Q 2563 0 2147 0 
L 494 0 
z
M 1100 541 
L 2078 541 
Q 2531 541 2789 625 
Q 3047 709 3200 863 
Q 3416 1078 3536 1442 
Q 3656 1806 3656 2325 
Q 3656 3044 3420 3430 
Q 3184 3816 2847 3947 
Q 2603 4041 2063 4041 
L 1100 4041 
L 1100 541 
z
" id="ArialMT-44" transform="scale(0.015625)"/>
      <path d="M 556 0 
L 556 2881 
L 59 2881 
L 59 3319 
L 556 3319 
L 556 3672 
Q 556 4006 616 4169 
Q 697 4388 901 4523 
Q 1106 4659 1475 4659 
Q 1713 4659 2000 4603 
L 1916 4113 
Q 1741 4144 1584 4144 
Q 1328 4144 1222 4034 
Q 1116 3925 1116 3625 
L 1116 3319 
L 1763 3319 
L 1763 2881 
L 1116 2881 
L 1116 0 
L 556 0 
z
" id="ArialMT-66" transform="scale(0.015625)"/>
      <path d="M 319 -275 
L 866 -356 
Q 900 -609 1056 -725 
Q 1266 -881 1628 -881 
Q 2019 -881 2231 -725 
Q 2444 -569 2519 -288 
Q 2563 -116 2559 434 
Q 2191 0 1641 0 
Q 956 0 581 494 
Q 206 988 206 1678 
Q 206 2153 378 2554 
Q 550 2956 876 3175 
Q 1203 3394 1644 3394 
Q 2231 3394 2613 2919 
L 2613 3319 
L 3131 3319 
L 3131 450 
Q 3131 -325 2973 -648 
Q 2816 -972 2473 -1159 
Q 2131 -1347 1631 -1347 
Q 1038 -1347 672 -1080 
Q 306 -813 319 -275 
z
M 784 1719 
Q 784 1066 1043 766 
Q 1303 466 1694 466 
Q 2081 466 2343 764 
Q 2606 1063 2606 1700 
Q 2606 2309 2336 2618 
Q 2066 2928 1684 2928 
Q 1309 2928 1046 2623 
Q 784 2319 784 1719 
z
" id="ArialMT-67" transform="scale(0.015625)"/>
      <path d="M 422 -1272 
L 422 3319 
L 934 3319 
L 934 2888 
Q 1116 3141 1344 3267 
Q 1572 3394 1897 3394 
Q 2322 3394 2647 3175 
Q 2972 2956 3137 2557 
Q 3303 2159 3303 1684 
Q 3303 1175 3120 767 
Q 2938 359 2589 142 
Q 2241 -75 1856 -75 
Q 1575 -75 1351 44 
Q 1128 163 984 344 
L 984 -1272 
L 422 -1272 
z
M 931 1641 
Q 931 1000 1190 694 
Q 1450 388 1819 388 
Q 2194 388 2461 705 
Q 2728 1022 2728 1688 
Q 2728 2322 2467 2637 
Q 2206 2953 1844 2953 
Q 1484 2953 1207 2617 
Q 931 2281 931 1641 
z
" id="ArialMT-70" transform="scale(0.015625)"/>
      <path d="M 125 0 
L 125 456 
L 2238 2881 
Q 1878 2863 1603 2863 
L 250 2863 
L 250 3319 
L 2963 3319 
L 2963 2947 
L 1166 841 
L 819 456 
Q 1197 484 1528 484 
L 3063 484 
L 3063 0 
L 125 0 
z
" id="ArialMT-7a" transform="scale(0.015625)"/>
     </defs>
     <use xlink:href="#ArialMT-32"/>
     <use x="55.615234" xlink:href="#ArialMT-44"/>
     <use x="127.832031" xlink:href="#ArialMT-20"/>
     <use x="155.615234" xlink:href="#ArialMT-66"/>
     <use x="183.398438" xlink:href="#ArialMT-69"/>
     <use x="205.615234" xlink:href="#ArialMT-6e"/>
     <use x="261.230469" xlink:href="#ArialMT-67"/>
     <use x="316.845703" xlink:href="#ArialMT-65"/>
     <use x="372.460938" xlink:href="#ArialMT-70"/>
     <use x="428.076172" xlink:href="#ArialMT-72"/>
     <use x="461.376953" xlink:href="#ArialMT-69"/>
     <use x="483.59375" xlink:href="#ArialMT-6e"/>
     <use x="539.208984" xlink:href="#ArialMT-74"/>
     <use x="566.992188" xlink:href="#ArialMT-73"/>
     <use x="616.992188" xlink:href="#ArialMT-20"/>
     <use x="644.775391" xlink:href="#ArialMT-73"/>
     <use x="694.775391" xlink:href="#ArialMT-69"/>
     <use x="716.992188" xlink:href="#ArialMT-67"/>
     <use x="772.607422" xlink:href="#ArialMT-6e"/>
     <use x="828.222656" xlink:href="#ArialMT-61"/>
     <use x="883.837891" xlink:href="#ArialMT-74"/>
     <use x="911.621094" xlink:href="#ArialMT-75"/>
     <use x="967.236328" xlink:href="#ArialMT-72"/>
     <use x="1000.537109" xlink:href="#ArialMT-69"/>
     <use x="1022.753906" xlink:href="#ArialMT-7a"/>
     <use x="1072.753906" xlink:href="#ArialMT-65"/>
     <use x="1128.369141" xlink:href="#ArialMT-72"/>
    </g>
   </g>
  </g>
 </g>
 <defs>
  <clipPath id="p8a216c11e7">
   <rect height="217.44" width="245.52" x="44.028125" y="21.935625"/>
  </clipPath>
 </defs>
</svg>
